# xmcd
#
# Track frame offsets: 
#        150
#        16010
#        31661
#        33883
#        47106
#        50750
#        64580
#        70088
#        83847
#        97566
#        106505
#        122020
#        127172
#        147866
#        149849
#        163440
#        170491
#
# Disc length: 2485 seconds
#
# Revision: 0
# Processed by: cddbd v1.5.2PL0 Copyright (c) Steve Scherf et al.
# Submitted via: ExactAudioCopy v1.0b1
#
DISCID=e209b311
DTITLE=Icke and Er - LIBE
DYEAR=2010
DGENRE=Hip-Hop
TTITLE0=Wieder Da
TTITLE1=Komm Klar
TTITLE2=Ringo Starr
TTITLE3=An Dir
TTITLE4=Angeschlossen
TTITLE5=Sogar Icke
TTITLE6=Dalai Lama
TTITLE7=Ick and Du
TTITLE8=Wie Watt Berlin?
TTITLE9=Jakobsweg
TTITLE10=In Memory of Er
TTITLE11=T.V.S.S.
TTITLE12=Meine Stars
TTITLE13=Oh Kacke
TTITLE14=Finanzpolka
TTITLE15=Verkannt
TTITLE16=A.I.E.
EXTD=
EXTT0=
EXTT1=
EXTT2=
EXTT3=
EXTT4=
EXTT5=
EXTT6=
EXTT7=
EXTT8=
EXTT9=
EXTT10=
EXTT11=
EXTT12=
EXTT13=
EXTT14=
EXTT15=
EXTT16=
PLAYORDER=
